<svg xmlns="http://www.w3.org/2000/svg" width="24.622" height="20" viewBox="0 0 24.622 20"><g transform="translate(-0.001 -57.441)"><g transform="translate(0.001 57.441)"><path d="M24.623,59.807a10.087,10.087,0,0,1-2.9.8,5.072,5.072,0,0,0,2.22-2.793,10.183,10.183,0,0,1-3.209,1.226,5.055,5.055,0,0,0-8.607,4.6,14.34,14.34,0,0,1-10.41-5.277A5.057,5.057,0,0,0,3.28,65.106a5.051,5.051,0,0,1-2.288-.634v.063a5.056,5.056,0,0,0,4.051,4.953,5.116,5.116,0,0,1-1.331.177,4.848,4.848,0,0,1-.951-.094,5.054,5.054,0,0,0,4.717,3.508,10.134,10.134,0,0,1-6.273,2.159A10.735,10.735,0,0,1,0,75.169a14.277,14.277,0,0,0,7.742,2.272,14.271,14.271,0,0,0,14.37-14.37l-.017-.654A10.086,10.086,0,0,0,24.623,59.807Z" transform="translate(-0.001 -57.441)" fill="#525252"/></g></g></svg>